<?xml version="1.0" standalone="no"?>
<svg xmlns="http://www.w3.org/2000/svg" viewBox="0 0 125 64" width="125" height="64"><g fill="#eaa317" color="#eaa317" transform="translate(40.388 0) scale(0.9166667) "><svg width="48.0" height="40.0" x="0.0" y="0.0" viewBox="0 0 48 40"><path fill="currentColor" fill-rule="evenodd" d="M41.576 0L12.872 28.703v-2.95L38.625 0h-4.1l-10.9 10.898L12.725 0h-4.1l12.949 12.95-1.476 1.474L5.675 0h-4.1l16.474 16.475-1.475 1.475L0 1.376V40h2.9V8.378l2.087 2.086V40h2.9V13.364l2.086 2.087V40h2.9v-.146l10.752-10.752L34.525 40h2.951V15.253l2.086-2.087V40h2.9V10.266l2.087-2.086V40h2.898V5.434h-.153l.153-.154V1.178L12.872 35.754v-2.95L45.675 0h-4.1zm-8.849 20l1.848-1.848v3.697L32.727 20zm-19.855-1.65L14.522 20l-1.65 1.65V18.35zm16.329 5.176l1.476-1.474 3.898 3.899v2.952l-5.374-5.377zm-3.526 3.526l1.475-1.476 7.425 7.426v2.95l-8.9-8.9z"></path></svg></g><path fill="#000000" fill-rule="nonzero" d="M15.70 18.82L12.05 19.10L12.05 5.59L8.69 18.96L6.53 18.96L2.90 5.54L2.90 18.82L0 18.96L0 1.13L5.16 0.98L8.14 12.12L10.99 1.39L15.70 1.10L15.70 18.82ZM23.23 19.27Q20.81 19.27 19.50 17.35Q18.19 15.43 18.19 12.24L18.19 12.24Q18.19 9.07 19.49 7.18Q20.78 5.28 23.23 5.28L23.23 5.28Q25.66 5.28 26.99 7.18Q28.32 9.07 28.32 12.24L28.32 12.24Q28.32 15.41 26.99 17.34Q25.66 19.27 23.23 19.27L23.23 19.27ZM23.23 16.78Q24.31 16.78 24.62 15.46Q24.94 14.14 24.94 12.22L24.94 12.22Q24.94 10.30 24.62 8.98Q24.31 7.66 23.23 7.66L23.23 7.66Q22.15 7.66 21.86 8.90Q21.58 10.15 21.58 11.95L21.58 11.95Q21.58 14.16 21.86 15.47Q22.15 16.78 23.23 16.78L23.23 16.78ZM36.10 18.96L33 18.96L29.23 5.74L33.26 5.45L34.97 14.09L36.91 5.88L39.96 5.59L36.10 18.96ZM44.90 3.58L41.54 3.72L41.54 0.24L44.90 0L44.90 3.58ZM44.88 18.82L41.52 19.10L41.52 5.74L44.88 5.45L44.88 18.82ZM52.13 19.27Q49.73 19.27 48.46 17.36Q47.18 15.46 47.18 12.29L47.18 12.29Q47.18 9.07 48.48 7.18Q49.78 5.28 52.25 5.28L52.25 5.28Q54.60 5.28 55.85 7.18Q57.10 9.07 57.10 12.29L57.10 12.29Q57.10 12.48 57.02 12.56Q56.95 12.65 56.95 12.67L56.95 12.67L50.54 12.67Q50.54 14.23 50.95 15.52Q51.36 16.80 52.20 16.80L52.20 16.80Q53.14 16.80 53.59 15.72Q54.05 14.64 54.07 14.59L54.07 14.59L56.62 15.55Q56.11 17.28 55.01 18.28Q53.90 19.27 52.13 19.27L52.13 19.27ZM50.54 10.73L53.78 10.73Q53.78 9.29 53.40 8.45Q53.02 7.61 52.20 7.61L52.20 7.61Q51.79 7.61 51.41 8.02Q51.02 8.42 50.78 9.14Q50.54 9.86 50.54 10.73L50.54 10.73ZM80.90 18.82L77.26 19.10L77.26 5.59L73.90 18.96L71.74 18.96L68.11 5.54L68.11 18.82L65.21 18.96L65.21 1.13L70.37 0.98L73.34 12.12L76.20 1.39L80.90 1.10L80.90 18.82ZM86.26 19.27Q85.39 19.27 84.70 18.73Q84 18.19 83.62 17.27Q83.23 16.34 83.23 15.19L83.23 15.19Q83.23 12.58 85.02 11.51Q86.81 10.44 89.18 10.30L89.18 10.30Q89.18 9 89.02 8.38Q88.85 7.75 88.20 7.75L88.20 7.75Q87.65 7.75 87.36 8.18Q87.07 8.62 87 9.29L87 9.29L83.71 8.71Q83.95 6.86 85.22 6.07Q86.50 5.28 88.20 5.28L88.20 5.28Q90.38 5.28 91.48 6.43Q92.57 7.58 92.57 9.43L92.57 9.43L92.57 16.42Q92.57 17.54 92.93 18.82L92.93 18.82L89.64 19.10L89.26 17.45Q88.82 18.22 87.98 18.74Q87.14 19.27 86.26 19.27L86.26 19.27ZM87.82 16.87Q88.22 16.87 88.50 16.68Q88.78 16.49 89.18 16.06L89.18 16.06L89.18 12.31Q87.98 12.31 87.26 12.96Q86.54 13.61 86.54 14.98L86.54 14.98Q86.54 15.89 86.87 16.38Q87.19 16.87 87.82 16.87L87.82 16.87ZM99.96 19.22Q98.33 19.22 97.20 18.40Q96.07 17.57 96.07 15.46L96.07 15.46L96.07 7.99L94.20 7.99L94.34 5.45L96.17 5.45L96.50 2.52L99.43 2.11L99.43 5.45L102.22 5.45L102.07 7.99L99.46 7.99L99.46 15.43Q99.46 16.15 99.82 16.46Q100.18 16.78 100.87 16.78L100.87 16.78Q101.26 16.78 102.17 16.63L102.17 16.63L102.17 18.96Q102.07 18.98 101.41 19.10Q100.75 19.22 99.96 19.22L99.96 19.22ZM108.17 19.27Q106.63 19.27 105.54 18.31Q104.45 17.35 103.90 15.77Q103.34 14.18 103.34 12.34L103.34 12.34Q103.34 10.51 103.88 8.90Q104.42 7.30 105.53 6.29Q106.63 5.28 108.24 5.28L108.24 5.28Q109.46 5.28 110.44 5.89Q111.41 6.50 111.96 7.61Q112.51 8.71 112.56 10.13L112.56 10.13L109.37 10.27Q109.37 10.18 109.28 9.50Q109.20 8.83 108.92 8.40Q108.65 7.97 108.22 7.97L108.22 7.97Q107.26 7.97 106.99 9.28Q106.73 10.58 106.73 12.22L106.73 12.22Q106.73 13.82 107.00 15.13Q107.28 16.44 108.31 16.44L108.31 16.44Q109.61 16.44 109.66 13.90L109.66 13.90L112.49 14.21Q112.18 16.70 111.24 17.99Q110.30 19.27 108.17 19.27L108.17 19.27ZM114.67 19.10L114.67 1.39L118.03 0.96L118.03 7.18Q120.10 5.28 121.90 5.28L121.90 5.28Q123.17 5.28 123.97 6.20Q124.78 7.13 124.78 8.69L124.78 8.69L124.78 18.82L121.42 19.10L121.42 9.91Q121.42 9.02 121.09 8.59Q120.77 8.16 120.24 8.16L120.24 8.16Q119.81 8.16 119.33 8.38Q118.85 8.59 118.03 9.07L118.03 9.07L118.03 18.82L114.67 19.10Z" transform="translate(0, 44.667)"></path></svg>